<svg xmlns="http://www.w3.org/2000/svg" viewBox="0 0 470 159" width="470" height="159" role="img" aria-label="Most used languages" font-family="ui-sans-serif,-apple-system,Segoe UI,Helvetica,Arial,sans-serif"><rect x="0.5" y="0.5" width="469" height="158" rx="11" fill="#ffffff" stroke="#d0d7de"/><text x="22" y="34" font-size="15.5" font-weight="700" fill="#3B82F6">Language mix</text><text x="448" y="34" font-size="11" text-anchor="end" fill="#636c76">averaged per repo</text><clipPath id="bar-light"><rect x="22" y="50" width="426" height="13" rx="6.5"/></clipPath><g clip-path="url(#bar-light)"><rect x="22" y="50" width="194.24" height="13" fill="#b07219"/><rect x="215.64" y="50" width="146.01" height="13" fill="#3572A5"/><rect x="361.04" y="50" width="36.98" height="13" fill="#e34c26"/><rect x="397.42" y="50" width="35.69" height="13" fill="#f1e05a"/><rect x="432.52" y="50" width="16.08" height="13" fill="#663399"/></g><circle cx="27" cy="88" r="5" fill="#b07219"/><text x="38" y="92" font-size="11.5" fill="#1f2328">Java</text><text x="223" y="92" font-size="11.5" text-anchor="end" fill="#636c76">45.5%</text><circle cx="240" cy="88" r="5" fill="#3572A5"/><text x="251" y="92" font-size="11.5" fill="#1f2328">Python</text><text x="436" y="92" font-size="11.5" text-anchor="end" fill="#636c76">34.1%</text><circle cx="27" cy="109" r="5" fill="#e34c26"/><text x="38" y="113" font-size="11.5" fill="#1f2328">HTML</text><text x="223" y="113" font-size="11.5" text-anchor="end" fill="#636c76">8.5%</text><circle cx="240" cy="109" r="5" fill="#f1e05a"/><text x="251" y="113" font-size="11.5" fill="#1f2328">JavaScript</text><text x="436" y="113" font-size="11.5" text-anchor="end" fill="#636c76">8.2%</text><circle cx="27" cy="130" r="5" fill="#663399"/><text x="38" y="134" font-size="11.5" fill="#1f2328">CSS</text><text x="223" y="134" font-size="11.5" text-anchor="end" fill="#636c76">3.6%</text></svg>